# xmcd
#
# Track frame offsets:
#	150
#	10624
#	31460
#	42311
#	60140
#	76078
#	93881
#	114118
#	127438
#	139080
#	153357
#	165205
#	180924
#	190496
#	202128
#	220563
#	234596
#	250500
#	266799
#	284791
#	297111
#	309974
#
# Disc length: 4368 seconds
#
# Revision: 1
# Processed by: cddbd v1.5.2PL0 Copyright (c) Steve Scherf et al.
# Submitted via: audiograbber 1.83.01
#
DISCID=25110e16
DTITLE=Artists Carousel - Artists Carousel 008
DYEAR=2007
DGENRE=Country
TTITLE0=Down By The Old River  - Dick Curless
TTITLE1=Stand Up Tall My Veterans - Ken Wentworth
TTITLE2=Stagecoach  - Nelson and The Stagecoach
TTITLE3=Alone  - Aage Nordheim
TTITLE4=Autum Of Our Lives  - Slim Andrews
TTITLE5=Here Forever  - Stevie Cee
TTITLE6=I Never Go Around Mirrors  - Everard Dodge
TTITLE7=9-11 - Archie Rivers
TTITLE8=Ashes To Gold  - Tommt The Uk Cowboy
TTITLE9=Going Home To Mumma  - Patti Mckinnon
TTITLE10=Bubbles In My Beer  - Gunnar Almqvist
TTITLE11=Hi Voice I Heard  - Drea Ynn
TTITLE12=Guilty Party  - Stan Anderson
TTITLE13=Trip To Calvary - Theresa Haddock
TTITLE14=Trip To Calvary - Barry Wood
TTITLE15=Silver Wings - Patti Mckinnon
TTITLE16=Black Ribbon Heartache  - Mark Reynolds
TTITLE17=I Don´t Care Where You´ve Been Sleeping  - Jack Boucher
TTITLE18=Path Of Roses  - Stan Anderson
TTITLE19=I Love Yuo So Much  - Theresa Haddock
TTITLE20=You Made It  - Jane Marie Arbour
TTITLE21=Get On Your Pony  - Mark Reynolds
EXTD=
EXTT0=
EXTT1=
EXTT2=
EXTT3=
EXTT4=
EXTT5=
EXTT6=
EXTT7=
EXTT8=
EXTT9=
EXTT10=
EXTT11=
EXTT12=
EXTT13=
EXTT14=
EXTT15=
EXTT16=
EXTT17=
EXTT18=
EXTT19=
EXTT20=
EXTT21=
PLAYORDER=
